<svg xmlns="http://www.w3.org/2000/svg" width="640" height="380" viewBox="0 0 640 380" font-family="'Inter','Segoe UI',system-ui,sans-serif">
  <defs>
    <linearGradient id="bg" x1="0" y1="0" x2="0" y2="1"><stop offset="0%" stop-color="#0f172a"/><stop offset="100%" stop-color="#1e293b"/></linearGradient>
    <linearGradient id="coord" x1="0" y1="0" x2="1" y2="1"><stop offset="0%" stop-color="#0891b2"/><stop offset="100%" stop-color="#06b6d4"/></linearGradient>
    <linearGradient id="es" x1="0" y1="0" x2="1" y2="1"><stop offset="0%" stop-color="#059669"/><stop offset="100%" stop-color="#10b981"/></linearGradient>
    <linearGradient id="join" x1="0" y1="0" x2="1" y2="1"><stop offset="0%" stop-color="#2563eb"/><stop offset="100%" stop-color="#3b82f6"/></linearGradient>
    <linearGradient id="target" x1="0" y1="0" x2="1" y2="1"><stop offset="0%" stop-color="#ea580c"/><stop offset="100%" stop-color="#f97316"/></linearGradient>
    <filter id="shadow" x="-6%" y="-8%" width="112%" height="120%"><feDropShadow dx="0" dy="2" stdDeviation="4" flood-color="#000" flood-opacity="0.35"/></filter>
    <marker id="arrow" markerWidth="10" markerHeight="10" refX="8" refY="3" orient="auto"><path d="M0,0 L8,3 L0,6 Z" fill="#94a3b8"/></marker>
  </defs>

  <rect width="640" height="380" rx="16" fill="url(#bg)"/>

  <!-- connectors (drawn BEHIND the boxes; heads stop in the gap outside each box) -->
  <line x1="195" y1="66" x2="292" y2="96" stroke="#94a3b8" stroke-width="1.6" stroke-dasharray="5,3" marker-end="url(#arrow)"/>
  <line x1="195" y1="206" x2="292" y2="140" stroke="#94a3b8" stroke-width="1.6" stroke-dasharray="5,3" marker-end="url(#arrow)"/>
  <line x1="450" y1="160" x2="450" y2="240" stroke="#94a3b8" stroke-width="1.6" marker-end="url(#arrow)"/>
  <line x1="450" y1="288" x2="450" y2="314" stroke="#94a3b8" stroke-width="1.6" marker-end="url(#arrow)"/>

  <!-- boxes (on top, cover any connector tail) -->
  <rect x="40" y="40" width="160" height="52" rx="10" fill="url(#es)" filter="url(#shadow)"/>
  <text x="120" y="71" font-size="14" font-weight="700" text-anchor="middle" fill="#fff">prod_us</text>
  <rect x="40" y="180" width="160" height="52" rx="10" fill="url(#es)" filter="url(#shadow)"/>
  <text x="120" y="211" font-size="14" font-weight="700" text-anchor="middle" fill="#fff">prod_fr</text>

  <rect x="300" y="66" width="300" height="98" rx="10" fill="url(#coord)" filter="url(#shadow)"/>
  <text x="450" y="100" font-size="14" font-weight="700" text-anchor="middle" fill="#fff">Federation coordinator</text>
  <text x="450" y="123" font-size="11" text-anchor="middle" fill="#cffafe">Parquet scratch +</text>
  <text x="450" y="140" font-size="11" text-anchor="middle" fill="#cffafe">per-query DuckDB view</text>

  <rect x="320" y="248" width="260" height="44" rx="10" fill="url(#join)" filter="url(#shadow)"/>
  <text x="450" y="275" font-size="14" font-weight="700" text-anchor="middle" fill="#fff">coordinator-local JOIN</text>

  <rect x="320" y="322" width="260" height="44" rx="10" fill="url(#target)" filter="url(#shadow)"/>
  <text x="450" y="349" font-size="14" font-weight="700" text-anchor="middle" fill="#fff">prod_eu (target)</text>

  <!-- labels -->
  <text x="248" y="60" font-size="11" text-anchor="middle" fill="#cbd5e1">leg 1</text>
  <text x="250" y="190" font-size="11" text-anchor="middle" fill="#cbd5e1">leg 2</text>
</svg>
