<svg width="640" height="360" viewBox="0 0 640 360" xmlns="http://www.w3.org/2000/svg">
  <defs>
    <marker id="arrow" markerWidth="10" markerHeight="10" refX="8" refY="3" orient="auto">
      <path d="M0,0 L8,3 L0,6 Z" fill="#333"/>
    </marker>
  </defs>

  <!-- SQL input -->
  <text x="320" y="28" font-family="Arial" font-size="13" text-anchor="middle" fill="#333">SQL: SELECT ... FROM emp e JOIN dept d ON e.dept_id = d.dept_id</text>
  <line x1="320" y1="36" x2="320" y2="60" stroke="#333" marker-end="url(#arrow)"/>

  <!-- Engine box -->
  <rect x="190" y="64" width="260" height="56" rx="6" fill="#f0f0f0" stroke="#333"/>
  <text x="320" y="88" font-family="Arial" font-size="13" text-anchor="middle">Driver / sidecar / REPL</text>
  <text x="320" y="106" font-family="Arial" font-size="12" text-anchor="middle">(embedded DuckDB engine)</text>

  <!-- sub-query arrows -->
  <line x1="250" y1="120" x2="160" y2="190" stroke="#333" marker-end="url(#arrow)"/>
  <text x="150" y="160" font-family="Arial" font-size="11" text-anchor="middle">sub-query e</text>
  <line x1="390" y1="120" x2="480" y2="190" stroke="#333" marker-end="url(#arrow)"/>
  <text x="490" y="160" font-family="Arial" font-size="11" text-anchor="middle">sub-query d</text>

  <!-- one cluster grouping -->
  <rect x="80" y="194" width="480" height="96" rx="8" fill="none" stroke="#333" stroke-dasharray="5,4"/>
  <text x="320" y="214" font-family="Arial" font-size="12" text-anchor="middle" fill="#333">one cluster</text>

  <!-- ES index boxes -->
  <rect x="110" y="224" width="160" height="52" rx="6" fill="#f0f0f0" stroke="#333"/>
  <text x="190" y="255" font-family="Arial" font-size="13" text-anchor="middle">ES index: emp</text>
  <rect x="370" y="224" width="160" height="52" rx="6" fill="#f0f0f0" stroke="#333"/>
  <text x="450" y="255" font-family="Arial" font-size="13" text-anchor="middle">ES index: dept</text>

  <!-- results back into join -->
  <line x1="190" y1="276" x2="290" y2="312" stroke="#333" marker-end="url(#arrow)"/>
  <line x1="450" y1="276" x2="350" y2="312" stroke="#333" marker-end="url(#arrow)"/>

  <!-- joined in DuckDB -->
  <rect x="210" y="314" width="220" height="34" rx="6" fill="#f0f0f0" stroke="#333"/>
  <text x="320" y="336" font-family="Arial" font-size="13" text-anchor="middle">joined in DuckDB</text>

  <!-- rows to client -->
  <line x1="430" y1="331" x2="540" y2="331" stroke="#333" marker-end="url(#arrow)"/>
  <text x="585" y="335" font-family="Arial" font-size="12" text-anchor="middle">rows to client</text>
</svg>
