<svg xmlns="http://www.w3.org/2000/svg" width="620" height="300" viewBox="0 0 620 300" font-family="'Inter','Segoe UI',system-ui,sans-serif">
  <defs>
    <linearGradient id="bg" x1="0" y1="0" x2="0" y2="1"><stop offset="0%" stop-color="#0f172a"/><stop offset="100%" stop-color="#1e293b"/></linearGradient>
    <linearGradient id="coord" x1="0" y1="0" x2="1" y2="1"><stop offset="0%" stop-color="#0891b2"/><stop offset="100%" stop-color="#06b6d4"/></linearGradient>
    <linearGradient id="es" x1="0" y1="0" x2="1" y2="1"><stop offset="0%" stop-color="#059669"/><stop offset="100%" stop-color="#10b981"/></linearGradient>
    <linearGradient id="target" x1="0" y1="0" x2="1" y2="1"><stop offset="0%" stop-color="#ea580c"/><stop offset="100%" stop-color="#f97316"/></linearGradient>
    <filter id="shadow" x="-6%" y="-8%" width="112%" height="120%"><feDropShadow dx="0" dy="2" stdDeviation="4" flood-color="#000" flood-opacity="0.35"/></filter>
    <marker id="arrow" markerWidth="10" markerHeight="10" refX="8" refY="3" orient="auto"><path d="M0,0 L8,3 L0,6 Z" fill="#94a3b8"/></marker>
  </defs>

  <rect width="620" height="300" rx="16" fill="url(#bg)"/>

  <rect x="200" y="20" width="220" height="54" rx="10" fill="url(#coord)" filter="url(#shadow)"/>
  <text x="310" y="52" font-size="14" font-weight="700" text-anchor="middle" fill="#fff">Federation coordinator</text>

  <rect x="40" y="200" width="200" height="54" rx="10" fill="url(#es)" filter="url(#shadow)"/>
  <text x="140" y="225" font-size="13" font-weight="700" text-anchor="middle" fill="#fff">prod_us sidecar</text>
  <text x="140" y="242" font-size="10" text-anchor="middle" fill="#d1fae5">source</text>

  <rect x="380" y="200" width="200" height="54" rx="10" fill="url(#target)" filter="url(#shadow)"/>
  <text x="480" y="225" font-size="13" font-weight="700" text-anchor="middle" fill="#fff">prod_eu sidecar</text>
  <text x="480" y="242" font-size="10" text-anchor="middle" fill="#fed7aa">target</text>

  <line x1="250" y1="74" x2="152" y2="198" stroke="#94a3b8" stroke-width="1.6" marker-end="url(#arrow)"/>
  <text x="118" y="138" font-size="11" fill="#cbd5e1">1. run source SELECT</text>

  <line x1="172" y1="198" x2="288" y2="76" stroke="#94a3b8" stroke-width="1.6" stroke-dasharray="5,3" marker-end="url(#arrow)"/>
  <text x="246" y="152" font-size="11" fill="#cbd5e1">2. Arrow stream</text>

  <line x1="372" y1="64" x2="470" y2="198" stroke="#f97316" stroke-width="1.8" marker-end="url(#arrow)"/>
  <text x="430" y="138" font-size="11" fill="#fdba74">3. bulk-load conveyor</text>
</svg>
